<svg width="48" height="48" viewBox="0 0 48 48" fill="none" xmlns="http://www.w3.org/2000/svg">
<path opacity="0.5" d="M24 48C37.2548 48 48 37.2548 48 24C48 10.7452 37.2548 0 24 0C10.7452 0 0 10.7452 0 24C0 37.2548 10.7452 48 24 48Z" fill="white"/>
<path opacity="0.4" d="M23.9984 45.5984C35.9278 45.5984 45.5984 35.9278 45.5984 23.9984C45.5984 12.0691 35.9278 2.39844 23.9984 2.39844C12.0691 2.39844 2.39844 12.0691 2.39844 23.9984C2.39844 35.9278 12.0691 45.5984 23.9984 45.5984Z" fill="#07000E"/>
<path d="M23.9969 43.2008C34.6007 43.2008 43.1969 34.6046 43.1969 24.0008C43.1969 13.3969 34.6007 4.80078 23.9969 4.80078C13.393 4.80078 4.79688 13.3969 4.79688 24.0008C4.79688 34.6046 13.393 43.2008 23.9969 43.2008Z" fill="#573DB8"/>
<path d="M30.0899 22.563L19.5767 16.346C19.3595 16.2148 19.1112 16.1439 18.8574 16.1407C18.6037 16.1376 18.3537 16.2022 18.1333 16.3279C17.9129 16.4536 17.73 16.6359 17.6036 16.856C17.4772 17.076 17.4118 17.3258 17.4141 17.5795V30.0073C17.4142 30.26 17.4812 30.5083 17.6082 30.7268C17.7353 30.9453 17.9179 31.1263 18.1375 31.2515C18.3572 31.3766 18.606 31.4413 18.8588 31.4392C19.1115 31.437 19.3592 31.368 19.5767 31.2391L30.0899 25.0267C30.3045 24.9001 30.4823 24.7197 30.6058 24.5034C30.7293 24.2871 30.7943 24.0423 30.7943 23.7932C30.7943 23.5441 30.7293 23.2993 30.6058 23.0829C30.4823 22.8666 30.3045 22.6862 30.0899 22.5596V22.563Z" fill="white"/>
</svg>
